<svg xmlns="http://www.w3.org/2000/svg" viewBox="0 0 34 34"><defs><style>.cls-1,.cls-2{fill:#fff;}.cls-1{opacity:0.15;isolation:isolate;}.cls-3{fill:none;}</style></defs><title>Fichier 1</title><g id="Calque_2" data-name="Calque 2"><g id="Calque_1-2" data-name="Calque 1"><path id="Rectangle_436-4" data-name="Rectangle 436-4" class="cls-1" d="M17,0h0A17,17,0,0,1,34,17h0A17,17,0,0,1,17,34h0A17,17,0,0,1,0,17H0A17,17,0,0,1,17,0Z"/><path id="baseline-notifications-24px" class="cls-2" d="M17,26.5a2,2,0,0,0,2-2H15A2,2,0,0,0,17,26.5Zm6-6v-5c0-3.07-1.64-5.64-4.5-6.32V8.5a1.5,1.5,0,0,0-3,0v.68c-2.87.68-4.5,3.24-4.5,6.32v5l-2,2v1H25v-1Z"/><rect id="Rectangle_8-2" data-name="Rectangle 8-2" class="cls-3" x="5" y="5" width="24" height="24"/></g></g></svg>