<svg xmlns="http://www.w3.org/2000/svg" width="69.956" height="37.307" viewBox="0 0 69.956 37.307">
  <g id="Groupe_739" data-name="Groupe 739" transform="translate(0.002 -0.002)">
    <path id="Exclusion_1" data-name="Exclusion 1" d="M-13165.212,21232.938h-53.629a13.9,13.9,0,0,1-9.895-4.1,13.9,13.9,0,0,1-4.1-9.891v-9.33a13.9,13.9,0,0,1,4.1-9.891,13.9,13.9,0,0,1,9.895-4.1h41.97a13.9,13.9,0,0,1,9.895,4.1,13.9,13.9,0,0,1,4.1,9.891v20.984A2.336,2.336,0,0,1-13165.212,21232.938Zm-19.45-23.682a5.009,5.009,0,0,0-5,5,5.007,5.007,0,0,0,5,5,5,5,0,0,0,5-5A5.006,5.006,0,0,0-13184.662,21209.256Zm-14,0a5.006,5.006,0,0,0-5,5,5,5,0,0,0,5,5,5.007,5.007,0,0,0,5-5A5.009,5.009,0,0,0-13198.666,21209.256Zm-16,0a5.006,5.006,0,0,0-5,5,5,5,0,0,0,5,5,5,5,0,0,0,5-5A5.006,5.006,0,0,0-13214.663,21209.256Z" transform="translate(13232.832 -21195.629)" fill="#fff"/>
  </g>
</svg>