<svg xmlns="http://www.w3.org/2000/svg" viewBox="0 0 21.68 19.88"><defs><style>.cls-1{fill:#fff;}</style></defs><title>Fichier 12</title><g id="Calque_2" data-name="Calque 2"><g id="Calque_1-2" data-name="Calque 1"><path id="Tracé_6626" data-name="Tracé 6626" class="cls-1" d="M16.26,0H5.42A5.44,5.44,0,0,0,0,5.42V9a5.45,5.45,0,0,0,5.42,5.43h.9v5.42l6.2-5.42h3.74A5.44,5.44,0,0,0,21.68,9V5.42A5.44,5.44,0,0,0,16.26,0M5.42,9a1.81,1.81,0,1,1,1.8-1.8h0A1.79,1.79,0,0,1,5.42,9m5.42,0a1.81,1.81,0,1,1,1.81-1.8h0A1.81,1.81,0,0,1,10.85,9h0m5.42,0a1.81,1.81,0,1,1,1.81-1.8h0A1.8,1.8,0,0,1,16.26,9h0"/></g></g></svg>