<svg xmlns="http://www.w3.org/2000/svg" viewBox="0 0 50 50"><defs><style>.cls-1,.cls-2{fill:none;}.cls-2{stroke:#fbfbfb;stroke-width:2px;}.cls-3{fill:#fff;}</style></defs><title>Fichier 5</title><g id="Calque_2" data-name="Calque 2"><g id="Calque_1-2" data-name="Calque 1"><g id="Groupe_138" data-name="Groupe 138"><g id="Ellipse_17" data-name="Ellipse 17"><circle class="cls-1" cx="29.5" cy="25.5" r="16.5"/><circle class="cls-2" cx="29.5" cy="25.5" r="15.5"/></g><path id="Soustraction_3" data-name="Soustraction 3" class="cls-3" d="M15.5,35h0a17.4,17.4,0,0,1,2.33-21,16.17,16.17,0,0,1,22.85-.49c.17.16.33.32.49.49A17.4,17.4,0,0,1,43.5,35a16.92,16.92,0,0,0-5.88-5.8,16.1,16.1,0,0,0-16.24,0A16.92,16.92,0,0,0,15.5,35Zm14-23a6.89,6.89,0,0,0-6.79,7,6.79,6.79,0,1,0,13.58,0A6.89,6.89,0,0,0,29.5,12Z"/></g><path id="Tracé_6628" data-name="Tracé 6628" class="cls-1" d="M0,0H50V50H0Z"/></g></g></svg>