<svg xmlns="http://www.w3.org/2000/svg" viewBox="0 0 34 34"><defs><style>.cls-1,.cls-2{fill:#fff;}.cls-1{opacity:0.16;isolation:isolate;}</style></defs><title>Fichier 2</title><g id="Calque_2" data-name="Calque 2"><g id="Calque_1-2" data-name="Calque 1"><path id="Rectangle_435-2" data-name="Rectangle 435-2" class="cls-1" d="M17,0h0A17,17,0,0,1,34,17h0A17,17,0,0,1,17,34h0A17,17,0,0,1,0,17H0A17,17,0,0,1,17,0Z"/><path id="Tracé_3028" data-name="Tracé 3028" class="cls-2" d="M19,11a2,2,0,0,0-2-2H16V8a1,1,0,0,0-1-1H11a1,1,0,0,0-1,1V9H9a2,2,0,0,0-2,2V26a2,2,0,0,0,2,2h8a2,2,0,0,0,2-2h8V11Zm6,13H17v2H9V11h3V9h2v2h3v2h8Z"/><rect id="Rectangle_180" data-name="Rectangle 180" class="cls-2" x="14" y="21" width="2" height="2"/><rect id="Rectangle_181" data-name="Rectangle 181" class="cls-2" x="14" y="14" width="2" height="2"/><rect id="Rectangle_182" data-name="Rectangle 182" class="cls-2" x="18" y="21" width="2" height="2"/><rect id="Rectangle_183" data-name="Rectangle 183" class="cls-2" x="18" y="14" width="2" height="2"/><rect id="Rectangle_184" data-name="Rectangle 184" class="cls-2" x="22" y="21" width="2" height="2"/><rect id="Rectangle_185" data-name="Rectangle 185" class="cls-2" x="22" y="14" width="2" height="2"/></g></g></svg>