<svg id="Groupe_965" data-name="Groupe 965" xmlns="http://www.w3.org/2000/svg" width="24" height="24" viewBox="0 0 24 24">
  <circle id="Ellipse_17" data-name="Ellipse 17" cx="12" cy="12" r="12" fill="none"/>
  <path id="Soustraction_3" data-name="Soustraction 3" d="M1.742,18h0A11.986,11.986,0,0,1,3.369,3.447a11.316,11.316,0,0,1,16.264,0A11.834,11.834,0,0,1,23,11.769,11.946,11.946,0,0,1,21.259,18a11.716,11.716,0,0,0-4.1-4.016,11.285,11.285,0,0,0-11.32,0A11.7,11.7,0,0,0,1.742,18ZM11.5,2.077A4.8,4.8,0,0,0,6.765,6.923,4.8,4.8,0,0,0,11.5,11.769a4.8,4.8,0,0,0,4.735-4.846A4.8,4.8,0,0,0,11.5,2.077Z" fill="#545454"/>
</svg>
