<svg xmlns="http://www.w3.org/2000/svg" width="260" height="177" viewBox="0 0 260 177">
  <g id="Groupe_964" data-name="Groupe 964" transform="translate(-425 -41)">
    <g id="Tracé_7267" data-name="Tracé 7267" transform="translate(425 41)" fill="#545454">
      <path d="M 255 156 L 5 156 L 5 5 L 255 5 L 255 156 Z" stroke="none"/>
      <path d="M 10 10 L 10 151 L 250 151 L 250 10 L 10 10 M 0 0 L 260 0 L 260 161 L 0 161 L 0 0 Z" stroke="none" fill="#545454"/>
    </g>
    <g id="Rectangle_1523" data-name="Rectangle 1523" transform="translate(493 208)" fill="#545454" stroke="#545454" stroke-width="1">
      <rect width="125" height="10" stroke="none"/>
      <rect x="0.5" y="0.5" width="124" height="9" fill="none"/>
    </g>
    <g id="Polygone_8" data-name="Polygone 8" transform="translate(588 84) rotate(90)" fill="#fff">
      <path d="M 74.13430023193359 64.5 L 0.8657015562057495 64.5 L 37.5 1.00054931640625 L 74.13430023193359 64.5 Z" stroke="none"/>
      <path d="M 37.5 2.001117706298828 L 1.731414794921875 64 L 73.26858520507812 64 L 37.5 2.001117706298828 M 37.5 0 L 75 65 L 0 65 L 37.5 0 Z" stroke="none" fill="#707070"/>
    </g>
    <g id="Rectangle_1529" data-name="Rectangle 1529" transform="translate(429 45)" fill="none" stroke="#fff" stroke-width="3">
      <rect width="253" height="154" stroke="none"/>
      <rect x="1.5" y="1.5" width="250" height="151" fill="none"/>
    </g>
  </g>
</svg>
