<svg xmlns="http://www.w3.org/2000/svg" width="46.397" height="48.68" viewBox="0 0 46.397 48.68">
  <g id="Groupe_1122" data-name="Groupe 1122" transform="translate(-417.392 -79.16)">
    <g id="Groupe_1111" data-name="Groupe 1111" transform="translate(-190.698 -2195.204) rotate(20)">
      <path id="Tracé_7362" data-name="Tracé 7362" d="M1394.713,1943.78a2.292,2.292,0,0,0-2.29,2.3,13,13,0,1,1-13.006-13h0v3.821l9.178-6.118-9.178-6.117v3.821h0a17.59,17.59,0,1,0,17.592,17.592A2.294,2.294,0,0,0,1394.713,1943.78Z" transform="translate(0 0)" fill="#d9d8d8"/>
    </g>
    <g id="Groupe_1119" data-name="Groupe 1119" transform="translate(-1407.884 -1734.848)">
      <g id="Groupe_1114" data-name="Groupe 1114">
        <path id="Tracé_7364" data-name="Tracé 7364" d="M1850.647,1847.388a1.747,1.747,0,0,1-1.253-.523l-3.553-3.549a1.791,1.791,0,0,1-.522-1.253h0v-7.109a1.776,1.776,0,1,1,3.552,0v6.37l3.034,3.03a1.778,1.778,0,0,1,0,2.511,1.759,1.759,0,0,1-1.258.523Z" fill="#d9d8d8"/>
      </g>
    </g>
  </g>
</svg>
