<svg id="outline-share-24px" xmlns="http://www.w3.org/2000/svg" width="48.898" height="48.898" viewBox="0 0 48.898 48.898">
  <g id="Bounding_Boxes">
    <path id="Tracé_3513" data-name="Tracé 3513" d="M0,0H48.9V48.9H0Z" fill="none"/>
  </g>
  <g id="Outline" transform="translate(6.112 4.075)">
    <path id="Tracé_3514" data-name="Tracé 3514" d="M33.562,30.687a5.933,5.933,0,0,0-3.993,1.569L15.041,23.8a6.67,6.67,0,0,0,.183-1.426,6.67,6.67,0,0,0-.183-1.426l14.364-8.374a6.1,6.1,0,1,0-1.956-4.462,6.67,6.67,0,0,0,.183,1.426L13.269,17.912a6.112,6.112,0,1,0,0,8.924l14.507,8.476a5.748,5.748,0,0,0-.163,1.324,5.949,5.949,0,1,0,5.949-5.949Zm0-24.612a2.037,2.037,0,1,1-2.037,2.037A2.043,2.043,0,0,1,33.562,6.075ZM9.112,24.412a2.037,2.037,0,1,1,2.037-2.037A2.043,2.043,0,0,1,9.112,24.412Zm24.449,14.3A2.037,2.037,0,1,1,35.6,36.677,2.043,2.043,0,0,1,33.562,38.715Z" transform="translate(-3 -2)" fill="#fff"/>
  </g>
</svg>
