<svg xmlns="http://www.w3.org/2000/svg" width="141.253" height="148.533" viewBox="0 0 141.253 148.533">
  <g id="Groupe_941" data-name="Groupe 941" transform="translate(-504.917 -1165.125)">
    <g id="Groupe_620" data-name="Groupe 620" transform="translate(504.917 1165.125)">
      <g id="Groupe_608" data-name="Groupe 608" opacity="0.137">
        <g id="Groupe_75" data-name="Groupe 75">
          <path id="Tracé_6610" data-name="Tracé 6610" d="M87.259-1.746c38.962,0,53.835,32.465,53.835,71.427s-29.559,66.236-68.521,66.236S0,108.643,0,69.681,48.3-1.746,87.259-1.746Z" transform="translate(0 1.746)" fill="#cccc5d"/>
        </g>
      </g>
      <g id="Groupe_614" data-name="Groupe 614" transform="translate(31.478 148.533) rotate(-103)" opacity="0.268">
        <g id="Groupe_75-2" data-name="Groupe 75" transform="translate(0)">
          <path id="Tracé_6610-2" data-name="Tracé 6610" d="M71.363,0c31.915.07,44.149,26.671,44.21,58.565s-24.108,54.167-56.022,54.1S.062,90.207,0,58.313,39.448-.07,71.363,0Z" fill="#cccc5d"/>
        </g>
      </g>
      <g id="Groupe_609" data-name="Groupe 609" transform="translate(63.45 24.38) rotate(40)" opacity="0.532">
        <path id="Tracé_6611" data-name="Tracé 6611" d="M45.491.008C66.156.44,74.406,17.861,74.84,38.571S59.9,73.451,39.235,73.019.439,57.718.006,37.008,24.826-.423,45.491.008Z" transform="translate(0 0)" fill="#cccc5d"/>
      </g>
      <g id="Groupe_602" data-name="Groupe 602" transform="translate(29.858 65.103) rotate(-16)">
        <path id="Tracé_6612" data-name="Tracé 6612" d="M38.741,0c17.3,0,23.9,14.414,23.9,31.712S49.519,61.12,32.221,61.12,0,49.011,0,31.712,21.443,0,38.741,0Z" transform="translate(0 0)" fill="#cccc5d"/>
      </g>
    </g>
    <path id="Tracé_310" data-name="Tracé 310" d="M6,2v9.151h.015L6,11.166l6.1,6.085L6,23.351l.015.015H6V32.5H24.3V23.366h-.015l.015-.015-6.1-6.1,6.1-6.085-.015-.015H24.3V2Z" transform="translate(561.446 1233.022)" fill="#fff"/>
    <path id="Tracé_311" data-name="Tracé 311" d="M0,0H36.6V36.6H0Z" transform="translate(533.894 1231.974)" fill="none"/>
  </g>
</svg>
